<svg xmlns="http://www.w3.org/2000/svg" width="743" height="369" viewBox="0 0 743 369">
  <defs>
    <linearGradient id="proco-logo-a" x1="50%" x2="50%" y1="0%" y2="100%">
      <stop offset="0%" stop-color="#4EC4D3"/>
      <stop offset="100%" stop-color="#6482C1"/>
    </linearGradient>
  </defs>
  <g fill="none" fill-rule="evenodd">
    <path fill="url(#proco-logo-a)" fill-rule="nonzero" d="M291.013477 70.2102426C274.059299 60.4366577 250.522911 69.3126685 238.455526 90.0566038 226.38814 110.800539 212.924528 153.185984 229.978437 163.059299 247.032345 172.932615 288.021563 146.404313 300.088949 125.660377 312.156334 104.916442 307.967655 80.083558 291.013477 70.2102426zM275.754717 118.778976C271.96496 125.361186 259 133.738544 253.614555 130.6469 248.229111 127.555256 252.51752 114.091644 256.307278 107.509434 260.097035 100.927224 267.576819 98.1347709 272.962264 101.226415 278.347709 104.318059 279.544474 112.296496 275.754717 118.778976zM77.9892183 70.2102426C61.0350404 79.9838275 56.9460916 104.816712 68.9137466 125.660377 80.8814016 146.504043 121.97035 172.932615 139.024259 163.059299 156.078167 153.185984 142.514825 110.90027 130.54717 90.0566038 118.579515 69.212938 95.0431267 60.4366577 77.9892183 70.2102426zM110.800539 128.053908C106.312668 130.6469 95.6415094 123.665768 92.4501348 118.280323 89.2587601 112.894879 90.3557951 106.312668 94.8436658 103.819407 99.3315364 101.326146 105.415094 103.619946 108.606469 109.005391 111.797844 114.390836 115.28841 125.560647 110.800539 128.053908z"/>
    <path fill="url(#proco-logo-a)" fill-rule="nonzero" d="M259.698113,146.902965 C248.528302,134.536388 241.946092,118.479784 242.444744,101.824798 C242.644205,94.6442049 243.74124,87.5633423 245.536388,80.6819407 C242.843666,83.574124 240.450135,86.7654987 238.455526,90.1563342 C232.87062,99.7304582 228.881402,113.892183 219.90566,119.77628 C196.967655,111.698113 172.03504,111.698113 149.097035,119.77628 C140.021563,113.892183 136.032345,99.8301887 130.54717,90.1563342 C128.552561,86.7654987 126.15903,83.574124 123.466307,80.6819407 C125.261456,87.5633423 126.358491,94.6442049 126.557951,101.824798 C127.056604,118.479784 120.474394,134.536388 109.304582,146.902965 C87.8625337,170.738544 77.8894879,202.752022 77.8894879,226.28841 C77.8894879,268.873315 125.660377,303.280323 184.501348,303.280323 C243.342318,303.280323 291.113208,268.773585 291.113208,226.28841 C291.113208,202.652291 281.140162,170.738544 259.698113,146.902965 Z M109.803235,259 C109.005391,260.396226 107.210243,260.795148 105.814016,259.997305 C90.6549865,250.722372 92.4501348,234.765499 95.4420485,227.584906 C96.0404313,226.088949 97.8355795,225.390836 99.2318059,225.989218 C100.727763,226.587601 101.425876,228.382749 100.827493,229.878706 C100.528302,230.576819 94.3450135,246.134771 108.80593,255.010782 C110.202156,255.808625 110.601078,257.603774 109.803235,259 Z M135.134771,220.304582 C129.649596,220.304582 125.261456,213.22372 125.261456,204.54717 C125.261456,195.87062 129.649596,188.789757 135.134771,188.789757 C140.619946,188.789757 145.008086,195.87062 145.008086,204.54717 C145.008086,213.22372 140.619946,220.304582 135.134771,220.304582 Z M184.501348,272.16442 C175.026954,272.16442 167.447439,267.576819 167.447439,261.991914 C167.447439,256.407008 175.126685,251.819407 184.501348,251.819407 C193.876011,251.819407 201.555256,256.407008 201.555256,261.991914 C201.555256,267.576819 193.975741,272.06469 184.501348,272.06469 L184.501348,272.16442 Z M233.867925,220.304582 C228.382749,220.304582 223.994609,213.22372 223.994609,204.54717 C223.994609,195.87062 228.382749,188.789757 233.867925,188.789757 C239.3531,188.789757 243.74124,195.87062 243.74124,204.54717 C243.74124,213.22372 239.3531,220.304582 233.867925,220.304582 Z M265.981132,259.997305 C264.584906,260.894879 262.789757,260.396226 261.991914,259 C261.09434,257.603774 261.592992,255.808625 262.889488,255.010782 C277.450135,246.134771 271.167116,230.576819 270.867925,229.878706 C270.269542,228.382749 270.967655,226.687332 272.363881,225.989218 C273.859838,225.390836 275.555256,226.088949 276.253369,227.584906 C279.345013,234.665768 281.140162,250.722372 265.981132,259.997305 Z"/>
    <path fill="url(#proco-logo-a)" fill-rule="nonzero" d="M348.956874,368.803235 L19.8463611,368.803235 C8.87601078,368.803235 0,359.927224 0,348.956874 L0,19.8463612 C0,8.87601079 8.87601078,0 19.8463611,0 L348.956874,0 C359.927224,0 368.803235,8.87601079 368.803235,19.8463612 L368.803235,349.056604 C368.703505,360.026955 359.927224,368.803235 348.956874,368.803235 Z M39.0187553,29.4204851 C33.7321058,29.4204851 29.4146753,33.7379156 29.4146753,39.0245651 L29.4146753,329.8784 C29.4146753,335.16505 33.7321058,339.48248 39.0187553,339.48248 L329.78448,339.48248 C335.071129,339.48248 339.38856,335.16505 339.38856,329.8784 L339.38856,39.0245651 C339.38856,33.7379156 335.071129,29.4204851 329.78448,29.4204851 C329.78448,29.4204851 39.0187553,29.4204851 39.0187553,29.4204851 Z" opacity=".4"/>
    <path fill="#4D7DBF" d="M454.022,157.176 C458.198021,159.032009 461.416989,161.699983 463.679,165.18 C465.941011,168.660017 467.072,172.719977 467.072,177.36 C467.072,182.000023 465.941011,186.059983 463.679,189.54 C461.416989,193.020017 458.198021,195.687991 454.022,197.544 C449.845979,199.400009 444.945028,200.328 439.319,200.328 L430.532,200.328 L430.532,215.292 L410,215.292 L410,154.392 L439.319,154.392 C444.945028,154.392 449.845979,155.319991 454.022,157.176 Z M444.278,182.6235 C445.670007,181.376494 446.366,179.622011 446.366,177.36 C446.366,175.097989 445.670007,173.343506 444.278,172.0965 C442.885993,170.849494 440.798014,170.226 438.014,170.226 L430.532,170.226 L430.532,184.494 L438.014,184.494 C440.798014,184.494 442.885993,183.870506 444.278,182.6235 Z M499.871,199.98 L494.303,199.98 L494.303,215.292 L473.771,215.292 L473.771,154.392 L503.09,154.392 C508.716028,154.392 513.616979,155.319991 517.793,157.176 C521.969021,159.032009 525.187989,161.699983 527.45,165.18 C529.712011,168.660017 530.843,172.719977 530.843,177.36 C530.843,181.710022 529.85701,185.508984 527.885,188.757 C525.91299,192.005016 523.071019,194.58599 519.359,196.5 L532.148,215.292 L510.224,215.292 L499.871,199.98 Z M508.049,172.0965 C506.656993,170.849494 504.569014,170.226 501.785,170.226 L494.303,170.226 L494.303,184.494 L501.785,184.494 C504.569014,184.494 506.656993,183.870506 508.049,182.6235 C509.441007,181.376494 510.137,179.622011 510.137,177.36 C510.137,175.097989 509.441007,173.343506 508.049,172.0965 Z M552.854,212.595 C547.633974,209.868986 543.545015,206.084524 540.587,201.2415 C537.628985,196.398476 536.15,190.93203 536.15,184.842 C536.15,178.75197 537.628985,173.285524 540.587,168.4425 C543.545015,163.599476 547.633974,159.815014 552.854,157.089 C558.074026,154.362986 563.960967,153 570.515,153 C577.069033,153 582.955974,154.362986 588.176,157.089 C593.396026,159.815014 597.484985,163.599476 600.443,168.4425 C603.401015,173.285524 604.88,178.75197 604.88,184.842 C604.88,190.93203 603.401015,196.398476 600.443,201.2415 C597.484985,206.084524 593.396026,209.868986 588.176,212.595 C582.955974,215.321014 577.069033,216.684 570.515,216.684 C563.960967,216.684 558.074026,215.321014 552.854,212.595 Z M577.4315,198.1965 C579.49051,196.949494 581.128994,195.180511 582.347,192.8895 C583.565006,190.598489 584.174,187.916015 584.174,184.842 C584.174,181.767985 583.565006,179.085511 582.347,176.7945 C581.128994,174.503489 579.49051,172.734506 577.4315,171.4875 C575.37249,170.240494 573.067013,169.617 570.515,169.617 C567.962987,169.617 565.65751,170.240494 563.5985,171.4875 C561.53949,172.734506 559.901006,174.503489 558.683,176.7945 C557.464994,179.085511 556.856,181.767985 556.856,184.842 C556.856,187.916015 557.464994,190.598489 558.683,192.8895 C559.901006,195.180511 561.53949,196.949494 563.5985,198.1965 C565.65751,199.443506 567.962987,200.067 570.515,200.067 C573.067013,200.067 575.37249,199.443506 577.4315,198.1965 Z M626.456,212.6385 C621.293974,209.941487 617.248515,206.171524 614.3195,201.3285 C611.390485,196.485476 609.926,190.990031 609.926,184.842 C609.926,178.693969 611.390485,173.198524 614.3195,168.3555 C617.248515,163.512476 621.293974,159.742513 626.456,157.0455 C631.618026,154.348487 637.417968,153 643.856,153 C649.77203,153 655.049977,154.04399 659.69,156.132 C664.330023,158.22001 668.157985,161.23598 671.174,165.18 L658.211,176.751 C654.440981,171.994976 650.004026,169.617 644.9,169.617 C640.607979,169.617 637.157013,170.994486 634.547,173.7495 C631.936987,176.504514 630.632,180.201977 630.632,184.842 C630.632,189.482023 631.936987,193.179486 634.547,195.9345 C637.157013,198.689514 640.607979,200.067 644.9,200.067 C650.004026,200.067 654.440981,197.689024 658.211,192.933 L671.174,204.504 C668.157985,208.44802 664.330023,211.46399 659.69,213.552 C655.049977,215.64001 649.77203,216.684 643.856,216.684 C637.417968,216.684 631.618026,215.335513 626.456,212.6385 Z M690.053,212.595 C684.832974,209.868986 680.744015,206.084524 677.786,201.2415 C674.827985,196.398476 673.349,190.93203 673.349,184.842 C673.349,178.75197 674.827985,173.285524 677.786,168.4425 C680.744015,163.599476 684.832974,159.815014 690.053,157.089 C695.273026,154.362986 701.159967,153 707.714,153 C714.268033,153 720.154974,154.362986 725.375,157.089 C730.595026,159.815014 734.683985,163.599476 737.642,168.4425 C740.600015,173.285524 742.079,178.75197 742.079,184.842 C742.079,190.93203 740.600015,196.398476 737.642,201.2415 C734.683985,206.084524 730.595026,209.868986 725.375,212.595 C720.154974,215.321014 714.268033,216.684 707.714,216.684 C701.159967,216.684 695.273026,215.321014 690.053,212.595 Z M714.6305,198.1965 C716.68951,196.949494 718.327994,195.180511 719.546,192.8895 C720.764006,190.598489 721.373,187.916015 721.373,184.842 C721.373,181.767985 720.764006,179.085511 719.546,176.7945 C718.327994,174.503489 716.68951,172.734506 714.6305,171.4875 C712.57149,170.240494 710.266013,169.617 707.714,169.617 C705.161987,169.617 702.85651,170.240494 700.7975,171.4875 C698.73849,172.734506 697.100006,174.503489 695.882,176.7945 C694.663994,179.085511 694.055,181.767985 694.055,184.842 C694.055,187.916015 694.663994,190.598489 695.882,192.8895 C697.100006,195.180511 698.73849,196.949494 700.7975,198.1965 C702.85651,199.443506 705.161987,200.067 707.714,200.067 C710.266013,200.067 712.57149,199.443506 714.6305,198.1965 Z"/>
  </g>
</svg>
