<svg xmlns="http://www.w3.org/2000/svg" width="800" height="440" viewBox="0 0 800 440" style="background:#fff">
  <defs>
    <linearGradient id="logo-a" x1="50%" x2="50%" y1="0%" y2="100%">
      <stop offset="0%" stop-color="#4EC4D3"/>
      <stop offset="100%" stop-color="#6482C1"/>
    </linearGradient>
    <linearGradient id="logo-b" x1="50%" x2="50%" y1="0%" y2="100%">
      <stop offset="0%" stop-color="#4EC4D3"/>
      <stop offset="100%" stop-color="#6482C1"/>
    </linearGradient>
  </defs>
  <g fill="none" transform="translate(30 35)">
    <path fill="url(#logo-a)" d="M291.013477,70.2102426 C274.059299,60.4366577 250.522911,69.3126685 238.455526,90.0566038 C226.38814,110.800539 212.924528,153.185984 229.978437,163.059299 C247.032345,172.932615 288.021563,146.404313 300.088949,125.660377 C312.156334,104.916442 307.967655,80.083558 291.013477,70.2102426 Z M275.754717,118.778976 C271.96496,125.361186 259,133.738544 253.614555,130.6469 C248.229111,127.555256 252.51752,114.091644 256.307278,107.509434 C260.097035,100.927224 267.576819,98.1347709 272.962264,101.226415 C278.347709,104.318059 279.544474,112.296496 275.754717,118.778976 Z"/>
    <path fill="url(#logo-b)" d="M77.9892183,70.2102426 C61.0350404,79.9838275 56.9460916,104.816712 68.9137466,125.660377 C80.8814016,146.504043 121.97035,172.932615 139.024259,163.059299 C156.078167,153.185984 142.514825,110.90027 130.54717,90.0566038 C118.579515,69.212938 95.0431267,60.4366577 77.9892183,70.2102426 Z M110.800539,128.053908 C106.312668,130.6469 95.6415094,123.665768 92.4501348,118.280323 C89.2587601,112.894879 90.3557951,106.312668 94.8436658,103.819407 C99.3315364,101.326146 105.415094,103.619946 108.606469,109.005391 C111.797844,114.390836 115.28841,125.560647 110.800539,128.053908 Z"/>
    <path fill="url(#logo-b)" d="M259.698113,146.902965 C248.528302,134.536388 241.946092,118.479784 242.444744,101.824798 C242.644205,94.6442049 243.74124,87.5633423 245.536388,80.6819407 C242.843666,83.574124 240.450135,86.7654987 238.455526,90.1563342 C232.87062,99.7304582 228.881402,113.892183 219.90566,119.77628 C196.967655,111.698113 172.03504,111.698113 149.097035,119.77628 C140.021563,113.892183 136.032345,99.8301887 130.54717,90.1563342 C128.552561,86.7654987 126.15903,83.574124 123.466307,80.6819407 C125.261456,87.5633423 126.358491,94.6442049 126.557951,101.824798 C127.056604,118.479784 120.474394,134.536388 109.304582,146.902965 C87.8625337,170.738544 77.8894879,202.752022 77.8894879,226.28841 C77.8894879,268.873315 125.660377,303.280323 184.501348,303.280323 C243.342318,303.280323 291.113208,268.773585 291.113208,226.28841 C291.113208,202.652291 281.140162,170.738544 259.698113,146.902965 Z M109.803235,259 C109.005391,260.396226 107.210243,260.795148 105.814016,259.997305 C90.6549865,250.722372 92.4501348,234.765499 95.4420485,227.584906 C96.0404313,226.088949 97.8355795,225.390836 99.2318059,225.989218 C100.727763,226.587601 101.425876,228.382749 100.827493,229.878706 C100.528302,230.576819 94.3450135,246.134771 108.80593,255.010782 C110.202156,255.808625 110.601078,257.603774 109.803235,259 Z M135.134771,220.304582 C129.649596,220.304582 125.261456,213.22372 125.261456,204.54717 C125.261456,195.87062 129.649596,188.789757 135.134771,188.789757 C140.619946,188.789757 145.008086,195.87062 145.008086,204.54717 C145.008086,213.22372 140.619946,220.304582 135.134771,220.304582 Z M184.501348,272.16442 C175.026954,272.16442 167.447439,267.576819 167.447439,261.991914 C167.447439,256.407008 175.126685,251.819407 184.501348,251.819407 C193.876011,251.819407 201.555256,256.407008 201.555256,261.991914 C201.555256,267.576819 193.975741,272.06469 184.501348,272.06469 L184.501348,272.16442 Z M233.867925,220.304582 C228.382749,220.304582 223.994609,213.22372 223.994609,204.54717 C223.994609,195.87062 228.382749,188.789757 233.867925,188.789757 C239.3531,188.789757 243.74124,195.87062 243.74124,204.54717 C243.74124,213.22372 239.3531,220.304582 233.867925,220.304582 Z M265.981132,259.997305 C264.584906,260.894879 262.789757,260.396226 261.991914,259 C261.09434,257.603774 261.592992,255.808625 262.889488,255.010782 C277.450135,246.134771 271.167116,230.576819 270.867925,229.878706 C270.269542,228.382749 270.967655,226.687332 272.363881,225.989218 C273.859838,225.390836 275.555256,226.088949 276.253369,227.584906 C279.345013,234.665768 281.140162,250.722372 265.981132,259.997305 Z"/>
    <path fill="url(#logo-b)" d="M349.056604,369.102426 L19.9460916,369.102426 C8.97574124,369.102426 0.0997304582,360.226415 0.0997304582,349.256065 L0.0997304582,20.1455526 C0.0997304582,9.17520216 8.97574124,0.299191375 19.9460916,0.299191375 L349.056604,0.299191375 C360.026954,0.299191375 368.902965,9.17520216 368.902965,20.1455526 L368.902965,349.355795 C368.803235,360.326146 360.026954,369.102426 349.056604,369.102426 Z M39.1184858,29.7196765 C33.8318363,29.7196765 29.5144058,34.037107 29.5144058,39.3237565 L29.5144058,330.177591 C29.5144058,335.464241 33.8318363,339.781671 39.1184858,339.781671 L329.88421,339.781671 C335.170859,339.781671 339.48829,335.464241 339.48829,330.177591 L339.48829,39.3237565 C339.48829,34.037107 335.170859,29.7196765 329.88421,29.7196765 C329.88421,29.7196765 39.1184858,29.7196765 39.1184858,29.7196765 Z" opacity=".4"/>
    <path fill="#4D7DBF" d="M423.355795 203.150943L423.355795 223.396226 402.312668 223.396226 402.312668 160.566038 429.239892 160.566038C432.431267 160.566038 435.522911 160.96496 438.714286 161.563342 441.706199 162.161725 444.498652 163.458221 446.991914 165.053908 449.485175 166.649596 451.479784 168.843666 452.876011 171.436658 455.768194 177.819407 455.768194 185.199461 452.876011 191.58221 451.479784 194.274933 449.485175 196.469003 447.091644 198.264151 444.598383 200.059299 441.80593 201.256065 438.814016 202.053908 435.622642 202.851752 432.530997 203.150943 429.239892 203.150943L423.355795 203.150943zM423.355795 177.021563L423.355795 187.09434 427.743935 187.09434C429.239892 187.09434 430.735849 186.595687 432.132075 185.797844 433.528302 184.90027 434.226415 183.404313 434.126685 181.808625 434.126685 180.911051 434.026954 180.212938 433.628032 179.415094 433.229111 178.816712 432.730458 178.318059 432.132075 177.919137 431.533693 177.520216 430.735849 177.320755 430.037736 177.121294L427.743935 176.822102 423.355795 177.021563zM460.256065 191.58221C460.156334 186.894879 461.153639 182.307278 462.948787 178.018868 464.544474 174.12938 467.137466 170.539084 470.229111 167.6469 473.520216 164.754717 477.309973 162.460916 481.299191 161.06469 490.274933 158.072776 500.048518 158.072776 509.024259 161.06469 513.013477 162.460916 516.803235 164.754717 520.09434 167.6469 523.285714 170.539084 525.778976 174.02965 527.574124 178.018868 529.369272 182.307278 530.366577 186.994609 530.266846 191.58221 530.266846 196.269542 529.369272 200.857143 527.574124 205.345013 525.778976 209.334232 523.285714 212.924528 520.09434 215.916442 516.902965 218.908356 513.212938 221.202156 509.024259 222.698113 500.048518 225.889488 490.274933 225.889488 481.299191 222.698113 477.110512 221.202156 473.320755 218.908356 470.229111 215.916442 467.037736 212.924528 464.544474 209.334232 462.948787 205.345013 461.153639 200.956873 460.256065 196.269542 460.256065 191.58221zM482.695418 191.58221C482.695418 193.477089 482.994609 195.471698 483.592992 197.266846 484.091644 198.862534 484.989218 200.458221 486.086253 201.654987 487.183288 202.951482 488.479784 203.948787 489.975741 204.54717 491.571429 205.145553 493.266846 205.544474 495.061995 205.544474 498.45283 205.544474 501.743935 204.148248 504.037736 201.654987 505.134771 200.358491 506.032345 198.862534 506.730458 197.266846 507.328841 195.471698 507.628032 193.477089 507.628032 191.58221 507.628032 189.687332 507.328841 187.792453 506.730458 185.997305 506.132075 184.401617 505.234501 183.005391 504.037736 181.708895 501.644205 179.315364 498.45283 178.018868 495.061995 178.018868 493.266846 178.018868 491.671159 178.41779 489.975741 179.016173 488.479784 179.614555 487.183288 180.61186 486.086253 181.808625 484.989218 183.105121 484.091644 184.501348 483.592992 186.097035 482.994609 187.991914 482.695418 189.687332 482.695418 191.58221zM536.250674 191.981132C536.150943 187.293801 537.148248 182.506739 538.943396 178.218329 540.539084 174.328841 543.132075 170.638814 546.22372 167.746631 549.415094 164.854447 553.005391 162.560647 557.09434 161.06469 561.382749 159.469003 565.87062 158.671159 570.458221 158.671159 575.145553 158.671159 579.733154 159.469003 584.221024 161.06469 588.210243 162.460916 591.90027 164.555256 595.091644 167.347709L582.226415 183.105121C581.12938 181.609164 579.533693 180.312668 577.838275 179.614555 575.943396 178.716981 573.948787 178.318059 571.954178 178.318059 570.15903 178.318059 568.563342 178.617251 566.867925 179.215633 565.371968 179.814016 563.975741 180.71159 562.878706 182.008086 561.58221 183.304582 560.784367 184.700809 560.086253 186.296496 559.487871 188.091644 559.088949 190.086253 559.088949 191.981132 559.088949 193.876011 559.38814 195.770889 560.086253 197.566038 560.684636 199.161725 561.681941 200.557951 562.878706 201.854447 563.975741 203.150943 565.371968 203.948787 566.867925 204.6469 568.363881 205.245283 570.15903 205.544474 571.754717 205.544474 573.849057 205.644205 576.142857 205.045822 578.037736 204.048518 579.633423 203.150943 581.02965 202.053908 582.226415 200.557951L595.191375 216.016173C592.199461 218.908356 588.609164 221.301887 584.719677 222.797844 575.943396 226.088949 566.070081 226.188679 557.293801 222.897574 553.304582 221.401617 549.614555 219.107817 546.423181 216.115903 543.231806 213.22372 540.838275 209.533693 539.142857 205.644205 537.148248 201.256065 536.250674 196.668464 536.250674 191.981132zM596.986523 191.58221C596.886792 186.894879 597.884097 182.307278 599.679245 178.018868 601.274933 174.12938 603.867925 170.539084 606.959569 167.6469 610.250674 164.754717 614.040431 162.460916 618.02965 161.06469 627.005391 158.072776 636.778976 158.072776 645.754717 161.06469 649.743935 162.460916 653.533693 164.754717 656.824798 167.6469 660.016173 170.539084 662.509434 174.02965 664.304582 178.018868 666.09973 182.307278 667.097035 186.994609 666.997305 191.58221 666.997305 196.269542 666.09973 200.857143 664.304582 205.345013 662.509434 209.334232 660.016173 212.924528 656.824798 215.916442 653.633423 218.908356 649.943396 221.202156 645.754717 222.698113 636.778976 225.889488 627.005391 225.889488 618.02965 222.698113 613.84097 221.202156 610.051213 218.908356 606.959569 215.916442 603.867925 212.924528 601.274933 209.334232 599.679245 205.345013 597.884097 200.956873 596.986523 196.269542 596.986523 191.58221zM619.425876 191.58221C619.425876 193.477089 619.725067 195.471698 620.32345 197.266846 620.822102 198.862534 621.719677 200.458221 622.816712 201.654987 623.913747 202.851752 625.210243 203.948787 626.706199 204.54717 628.301887 205.345013 629.997305 205.544474 631.792453 205.544474 635.183288 205.544474 638.474394 204.148248 640.768194 201.654987 641.865229 200.358491 642.762803 198.862534 643.460916 197.266846 644.059299 195.471698 644.358491 193.477089 644.358491 191.58221 644.358491 189.687332 644.059299 187.792453 643.460916 185.997305 642.862534 184.401617 641.96496 183.005391 640.768194 181.708895 638.374663 179.315364 635.183288 178.018868 631.792453 178.018868 629.997305 178.018868 628.401617 178.41779 626.706199 179.016173 625.210243 179.614555 623.913747 180.61186 622.816712 181.808625 621.719677 183.105121 620.822102 184.501348 620.32345 186.097035 619.824798 187.892183 619.525606 189.587601 619.525606 191.48248L619.425876 191.58221z"/>
    <polygon fill="#4D7DBF" points="696.518 198.364 696.518 198.364 696.418 223.396 675.873 223.396 675.873 160.566 696.318 160.566 696.318 183.704 696.418 183.704 713.073 160.566 738.005 160.566 714.369 189.488 739.302 223.496 713.372 223.496"/>
  </g>
</svg>
